# xmcd
#
# Track frame offsets: 
#        183
#        17320
#        48623
#        68280
#        98743
#        117618
#        143938
#        167253
#        181923
#        243720
#
# Disc length: 3489 seconds
#
# Revision: 0
# Processed by: cddbd v1.4PL0 Copyright (c) Steve Scherf et al.
# Submitted via: ExactAudioCopy v0.90b4
#
DISCID=7c0d9f0a
DTITLE=Todd Sharpville - Touch of your love
DYEAR=1993
DGENRE=Blues
TTITLE0=Makin' love
TTITLE1=Mandy's swing
TTITLE2=Gone too long
TTITLE3=I'll get by
TTITLE4=Sharpville shuffle
TTITLE5=Can't hold out
TTITLE6=Little bit worried
TTITLE7=Touch of your love
TTITLE8=Gambling woman blues
TTITLE9=All nite long
EXTD=
EXTT0=
EXTT1=
EXTT2=
EXTT3=
EXTT4=
EXTT5=
EXTT6=
EXTT7=
EXTT8=
EXTT9=
PLAYORDER=
